<svg viewBox="0 0 2000 1000" xmlns="http://www.w3.org/2000/svg"><mask id="b" x="0" y="0" width="2000" height="1000"><path fill="url(#a)" d="M0 0h2000v1000H0z"/></mask><path fill="#1d1807" d="M0 0h2000v1000H0z"/><g style="transform-origin:center center" stroke="#44653e" stroke-width=".8" fill="none" mask="url(#b)"><path d="M0 0h111v111H0zM111 0h111v111H111zM222 0h111v111H222zM333 0h111v111H333zM444 0h111v111H444zM555 0h111v111H555zM666 0h111v111H666zM777 0h111v111H777zM888 0h111v111H888zM999 0h111v111H999zM1110 0h111v111h-111zM1221 0h111v111h-111zM1332 0h111v111h-111zM1443 0h111v111h-111zM1554 0h111v111h-111zM1665 0h111v111h-111zM1776 0h111v111h-111zM1887 0h111v111h-111zM0 111h111v111H0zM111 111h111v111H111zM222 111h111v111H222zM333 111h111v111H333zM444 111h111v111H444zM555 111h111v111H555zM666 111h111v111H666zM777 111h111v111H777zM888 111h111v111H888zM999 111h111v111H999zM1110 111h111v111h-111zM1221 111h111v111h-111zM1332 111h111v111h-111zM1443 111h111v111h-111zM1554 111h111v111h-111zM1665 111h111v111h-111zM1776 111h111v111h-111zM1887 111h111v111h-111zM0 222h111v111H0zM111 222h111v111H111zM222 222h111v111H222zM333 222h111v111H333zM444 222h111v111H444zM555 222h111v111H555zM666 222h111v111H666zM777 222h111v111H777zM888 222h111v111H888zM999 222h111v111H999zM1110 222h111v111h-111zM1221 222h111v111h-111zM1332 222h111v111h-111zM1443 222h111v111h-111zM1554 222h111v111h-111zM1665 222h111v111h-111zM1776 222h111v111h-111zM1887 222h111v111h-111zM0 333h111v111H0zM111 333h111v111H111zM222 333h111v111H222zM333 333h111v111H333zM444 333h111v111H444zM555 333h111v111H555zM666 333h111v111H666zM777 333h111v111H777zM888 333h111v111H888zM999 333h111v111H999zM1110 333h111v111h-111zM1221 333h111v111h-111zM1332 333h111v111h-111zM1443 333h111v111h-111zM1554 333h111v111h-111zM1665 333h111v111h-111zM1776 333h111v111h-111zM1887 333h111v111h-111zM0 444h111v111H0zM111 444h111v111H111zM222 444h111v111H222zM333 444h111v111H333zM444 444h111v111H444zM555 444h111v111H555zM666 444h111v111H666zM777 444h111v111H777zM888 444h111v111H888zM999 444h111v111H999zM1110 444h111v111h-111zM1221 444h111v111h-111zM1332 444h111v111h-111zM1443 444h111v111h-111zM1554 444h111v111h-111zM1665 444h111v111h-111zM1776 444h111v111h-111zM1887 444h111v111h-111zM0 555h111v111H0zM111 555h111v111H111zM222 555h111v111H222zM333 555h111v111H333zM444 555h111v111H444zM555 555h111v111H555zM666 555h111v111H666zM777 555h111v111H777zM888 555h111v111H888zM999 555h111v111H999zM1110 555h111v111h-111zM1221 555h111v111h-111zM1332 555h111v111h-111zM1443 555h111v111h-111zM1554 555h111v111h-111zM1665 555h111v111h-111zM1776 555h111v111h-111zM1887 555h111v111h-111zM0 666h111v111H0zM111 666h111v111H111zM222 666h111v111H222zM333 666h111v111H333zM444 666h111v111H444zM555 666h111v111H555zM666 666h111v111H666zM777 666h111v111H777zM888 666h111v111H888zM999 666h111v111H999zM1110 666h111v111h-111zM1221 666h111v111h-111zM1332 666h111v111h-111zM1443 666h111v111h-111zM1554 666h111v111h-111zM1665 666h111v111h-111zM1776 666h111v111h-111zM1887 666h111v111h-111zM0 777h111v111H0zM111 777h111v111H111zM222 777h111v111H222zM333 777h111v111H333zM444 777h111v111H444zM555 777h111v111H555zM666 777h111v111H666zM777 777h111v111H777zM888 777h111v111H888zM999 777h111v111H999zM1110 777h111v111h-111zM1221 777h111v111h-111zM1332 777h111v111h-111zM1443 777h111v111h-111zM1554 777h111v111h-111zM1665 777h111v111h-111zM1776 777h111v111h-111zM1887 777h111v111h-111zM0 888h111v111H0zM111 888h111v111H111zM222 888h111v111H222zM333 888h111v111H333zM444 888h111v111H444zM555 888h111v111H555zM666 888h111v111H666zM777 888h111v111H777zM888 888h111v111H888zM999 888h111v111H999zM1110 888h111v111h-111zM1221 888h111v111h-111zM1332 888h111v111h-111zM1443 888h111v111h-111zM1554 888h111v111h-111zM1665 888h111v111h-111zM1776 888h111v111h-111zM1887 888h111v111h-111zM0 999h111v111H0zM111 999h111v111H111zM222 999h111v111H222zM333 999h111v111H333zM444 999h111v111H444zM555 999h111v111H555zM666 999h111v111H666zM777 999h111v111H777zM888 999h111v111H888zM999 999h111v111H999zM1110 999h111v111h-111zM1221 999h111v111h-111zM1332 999h111v111h-111zM1443 999h111v111h-111zM1554 999h111v111h-111zM1665 999h111v111h-111zM1776 999h111v111h-111zM1887 999h111v111h-111z"/></g><defs><radialGradient id="a"><stop offset="0" stop-color="#fff"/><stop offset="1" stop-color="#fff" stop-opacity="0"/></radialGradient></defs></svg>